<?xml version="1.0" encoding="UTF-8"?>
<svg xmlns="http://www.w3.org/2000/svg" id="Layer_1" data-name="Layer 1" viewBox="0 0 24 24" width="512" height="512"><path d="M17,0c-3.925,0-7,1.757-7,4v4.378c-.906-.24-1.919-.378-3-.378-3.925,0-7,1.757-7,4v8c0,2.243,3.075,4,7,4s7-1.757,7-4v-.385c.933,.248,1.955,.385,3,.385,3.925,0,7-1.757,7-4V4c0-2.243-3.075-4-7-4Zm0,1c3.252,0,6,1.374,6,3s-2.748,3-6,3-6-1.374-6-3,2.748-3,6-3ZM7,9c3.252,0,6,1.374,6,3s-2.748,3-6,3-6-1.374-6-3,2.748-3,6-3ZM1,14.08c1.213,1.158,3.419,1.92,6,1.92s4.787-.762,6-1.92v1.92c0,1.626-2.748,3-6,3s-6-1.374-6-3v-1.92Zm6,8.92c-3.252,0-6-1.374-6-3v-1.92c1.213,1.158,3.419,1.92,6,1.92s4.787-.762,6-1.92v1.92c0,1.626-2.748,3-6,3Zm10-4c-1.057,0-2.086-.149-3-.422v-2.962c.932,.248,1.953,.383,3,.383,2.581,0,4.787-.762,6-1.92v1.92c0,1.626-2.748,3-6,3Zm0-4c-1.061,0-2.086-.151-3-.424v-2.576c0-.133-.012-.264-.034-.393,.938,.254,1.963,.393,3.034,.393,2.581,0,4.787-.762,6-1.92v1.92c0,1.626-2.748,3-6,3Zm0-4c-1.309,0-2.538-.22-3.586-.624-.518-.683-1.356-1.261-2.414-1.676v-2.619c1.213,1.158,3.419,1.92,6,1.92s4.787-.762,6-1.92v1.92c0,1.626-2.748,3-6,3Z"/></svg>
